<svg width="18" height="13" viewBox="0 0 18 13" fill="none" xmlns="http://www.w3.org/2000/svg">
<path d="M0 4.9375C0 2.34766 2.09766 0.25 4.6875 0.25H5C5.69141 0.25 6.25 0.808594 6.25 1.5C6.25 2.19141 5.69141 2.75 5 2.75H4.6875C3.48047 2.75 2.5 3.73047 2.5 4.9375V5.25H5C6.37891 5.25 7.5 6.37109 7.5 7.75V10.25C7.5 11.6289 6.37891 12.75 5 12.75H2.5C1.12109 12.75 0 11.6289 0 10.25V9V7.75V4.9375ZM10 4.9375C10 2.34766 12.0977 0.25 14.6875 0.25H15C15.6914 0.25 16.25 0.808594 16.25 1.5C16.25 2.19141 15.6914 2.75 15 2.75H14.6875C13.4805 2.75 12.5 3.73047 12.5 4.9375V5.25H15C16.3789 5.25 17.5 6.37109 17.5 7.75V10.25C17.5 11.6289 16.3789 12.75 15 12.75H12.5C11.1211 12.75 10 11.6289 10 10.25V9V7.75V4.9375Z" fill="#60A5FA"/>
</svg>
