<svg width="19" height="19" viewBox="0 0 19 19" fill="none" xmlns="http://www.w3.org/2000/svg">
<g clip-path="url(#clip0_3_324)">
<path d="M4.74453 1.80033C5.56367 1.66323 6.38984 1.73354 7.15625 1.98666L8.90703 4.71127L6.25625 7.36205C6.20352 7.41479 6.17188 7.48862 6.17539 7.56596C6.17891 7.6433 6.21055 7.71362 6.2668 7.76635L10.2043 11.4226C10.3063 11.5175 10.4645 11.5246 10.5734 11.4331C10.6824 11.3417 10.707 11.1871 10.6332 11.0675L8.50977 7.61869L11.6984 4.96088C11.7898 4.88705 11.8215 4.76049 11.7828 4.65151L10.9812 2.4226C11.9832 1.83549 13.175 1.60698 14.3457 1.80385C16.7715 2.20463 18.5469 4.29994 18.5469 6.75737V6.96127C18.5469 8.42026 17.9422 9.81596 16.8734 10.8109L10.5207 16.7417C10.257 16.9878 9.90898 17.1249 9.54688 17.1249C9.18477 17.1249 8.83672 16.9878 8.57305 16.7417L2.22031 10.8109C1.15156 9.81596 0.546875 8.42026 0.546875 6.96127V6.75737C0.546875 4.29994 2.32227 2.20463 4.74453 1.80033Z" fill="white"/>
</g>
<defs>
<clipPath id="clip0_3_324">
<path d="M0.546875 0.25H18.5469V18.25H0.546875V0.25Z" fill="white"/>
</clipPath>
</defs>
</svg>
