<svg width="21" height="16" viewBox="0 0 21 16" fill="none" xmlns="http://www.w3.org/2000/svg">
<path d="M0 6.375C0 3.26719 2.51719 0.75 5.625 0.75H6C6.82969 0.75 7.5 1.42031 7.5 2.25C7.5 3.07969 6.82969 3.75 6 3.75H5.625C4.17656 3.75 3 4.92656 3 6.375V6.75H6C7.65469 6.75 9 8.09531 9 9.75V12.75C9 14.4047 7.65469 15.75 6 15.75H3C1.34531 15.75 0 14.4047 0 12.75V11.25V9.75V6.375ZM12 6.375C12 3.26719 14.5172 0.75 17.625 0.75H18C18.8297 0.75 19.5 1.42031 19.5 2.25C19.5 3.07969 18.8297 3.75 18 3.75H17.625C16.1766 3.75 15 4.92656 15 6.375V6.75H18C19.6547 6.75 21 8.09531 21 9.75V12.75C21 14.4047 19.6547 15.75 18 15.75H15C13.3453 15.75 12 14.4047 12 12.75V11.25V9.75V6.375Z" fill="#4ADE80"/>
</svg>
