<svg width="18" height="17" viewBox="0 0 18 17" fill="none" xmlns="http://www.w3.org/2000/svg">
<path d="M1.67344 9.81088L8.02617 15.7417C8.28984 15.9878 8.63789 16.1249 9 16.1249C9.36211 16.1249 9.71016 15.9878 9.97383 15.7417L16.3266 9.81088C17.3953 8.81596 18 7.42026 18 5.96127V5.75737C18 3.29994 16.2246 1.20463 13.8023 0.800335C12.1992 0.533147 10.568 1.05698 9.42188 2.20307L9 2.62494L8.57812 2.20307C7.43203 1.05698 5.80078 0.533147 4.19766 0.800335C1.77539 1.20463 0 3.29994 0 5.75737V5.96127C0 7.42026 0.604687 8.81596 1.67344 9.81088Z" fill="white"/>
</svg>
