<svg width="21" height="15" viewBox="0 0 21 15" fill="none" xmlns="http://www.w3.org/2000/svg">
<path d="M0 5.625C0 2.51719 2.51719 0 5.625 0H6C6.82969 0 7.5 0.670312 7.5 1.5C7.5 2.32969 6.82969 3 6 3H5.625C4.17656 3 3 4.17656 3 5.625V6H6C7.65469 6 9 7.34531 9 9V12C9 13.6547 7.65469 15 6 15H3C1.34531 15 0 13.6547 0 12V10.5V9V5.625ZM12 5.625C12 2.51719 14.5172 0 17.625 0H18C18.8297 0 19.5 0.670312 19.5 1.5C19.5 2.32969 18.8297 3 18 3H17.625C16.1766 3 15 4.17656 15 5.625V6H18C19.6547 6 21 7.34531 21 9V12C21 13.6547 19.6547 15 18 15H15C13.3453 15 12 13.6547 12 12V10.5V9V5.625Z" fill="#F472B6"/>
</svg>
