<svg width="21" height="16" viewBox="0 0 21 16" fill="none" xmlns="http://www.w3.org/2000/svg">
<path d="M0 5.875C0 2.76719 2.51719 0.25 5.625 0.25H6C6.82969 0.25 7.5 0.920312 7.5 1.75C7.5 2.57969 6.82969 3.25 6 3.25H5.625C4.17656 3.25 3 4.42656 3 5.875V6.25H6C7.65469 6.25 9 7.59531 9 9.25V12.25C9 13.9047 7.65469 15.25 6 15.25H3C1.34531 15.25 0 13.9047 0 12.25V10.75V9.25V5.875ZM12 5.875C12 2.76719 14.5172 0.25 17.625 0.25H18C18.8297 0.25 19.5 0.920312 19.5 1.75C19.5 2.57969 18.8297 3.25 18 3.25H17.625C16.1766 3.25 15 4.42656 15 5.875V6.25H18C19.6547 6.25 21 7.59531 21 9.25V12.25C21 13.9047 19.6547 15.25 18 15.25H15C13.3453 15.25 12 13.9047 12 12.25V10.75V9.25V5.875Z" fill="#C084FC"/>
</svg>
