<svg width="18" height="19" viewBox="0 0 18 19" fill="none" xmlns="http://www.w3.org/2000/svg">
<path d="M14.625 7.5625C14.625 9.17617 14.1012 10.6668 13.2188 11.8762L17.6695 16.3305C18.109 16.7699 18.109 17.4836 17.6695 17.923C17.2301 18.3625 16.5164 18.3625 16.077 17.923L11.6262 13.4688C10.4168 14.3547 8.92617 14.875 7.3125 14.875C3.27305 14.875 0 11.602 0 7.5625C0 3.52305 3.27305 0.25 7.3125 0.25C11.352 0.25 14.625 3.52305 14.625 7.5625ZM7.3125 12.625C7.97732 12.625 8.63562 12.4941 9.24984 12.2396C9.86405 11.9852 10.4221 11.6123 10.8922 11.1422C11.3623 10.6721 11.7352 10.114 11.9896 9.49984C12.2441 8.88562 12.375 8.22732 12.375 7.5625C12.375 6.89768 12.2441 6.23938 11.9896 5.62516C11.7352 5.01095 11.3623 4.45287 10.8922 3.98277C10.4221 3.51268 9.86405 3.13977 9.24984 2.88536C8.63562 2.63095 7.97732 2.5 7.3125 2.5C6.64768 2.5 5.98938 2.63095 5.37516 2.88536C4.76095 3.13977 4.20287 3.51268 3.73277 3.98277C3.26268 4.45287 2.88977 5.01095 2.63536 5.62516C2.38095 6.23938 2.25 6.89768 2.25 7.5625C2.25 8.22732 2.38095 8.88562 2.63536 9.49984C2.88977 10.114 3.26268 10.6721 3.73277 11.1422C4.20287 11.6123 4.76095 11.9852 5.37516 12.2396C5.98938 12.4941 6.64768 12.625 7.3125 12.625Z" fill="white"/>
</svg>
