<svg width="19" height="19" viewBox="0 0 19 19" fill="none" xmlns="http://www.w3.org/2000/svg">
<g clip-path="url(#clip0_3_330)">
<path d="M11.7773 1.47341C11.373 1.65271 11.1094 2.05701 11.1094 2.49998V4.74998H7.17188C3.75469 4.74998 0.984375 7.52029 0.984375 10.9375C0.984375 14.9207 3.84961 16.6996 4.50703 17.0582C4.59492 17.1074 4.69336 17.125 4.7918 17.125C5.175 17.125 5.48438 16.8121 5.48438 16.4324C5.48438 16.1687 5.3332 15.9261 5.13984 15.7469C4.80937 15.434 4.35938 14.8187 4.35938 13.75C4.35938 11.8867 5.87109 10.375 7.73438 10.375H11.1094V12.625C11.1094 13.0679 11.3695 13.4722 11.7773 13.6515C12.1852 13.8308 12.6562 13.757 12.9867 13.4617L18.6117 8.39919C18.8473 8.18474 18.9844 7.8824 18.9844 7.56248C18.9844 7.24255 18.8508 6.94021 18.6117 6.72576L12.9867 1.66326C12.6562 1.36443 12.1816 1.2906 11.7773 1.47341Z" fill="white"/>
</g>
<defs>
<clipPath id="clip0_3_330">
<path d="M0.984375 0.25H18.9844V18.25H0.984375V0.25Z" fill="white"/>
</clipPath>
</defs>
</svg>
