<svg width="18" height="17" viewBox="0 0 18 17" fill="none" xmlns="http://www.w3.org/2000/svg">
<path d="M14.1961 0.459379C14.618 0.283598 15.0996 0.382035 15.423 0.701957L17.673 2.95196C17.884 3.16289 18.0035 3.44766 18.0035 3.74649C18.0035 4.04532 17.884 4.33008 17.673 4.54102L15.423 6.79102C15.0996 7.11446 14.618 7.20938 14.1961 7.0336C13.7742 6.85782 13.5 6.45 13.5 5.99297V4.875H12.375C12.0199 4.875 11.6859 5.04024 11.475 5.325L9.98438 7.31133L8.57812 5.4375L9.675 3.975C10.3113 3.12422 11.3133 2.625 12.375 2.625H13.5V1.5C13.5 1.04649 13.7742 0.63516 14.1961 0.459379ZM5.76562 9.18868L7.17188 11.0625L6.075 12.525C5.43867 13.3758 4.43672 13.875 3.375 13.875H1.125C0.502734 13.875 0 13.3723 0 12.75C0 12.1277 0.502734 11.625 1.125 11.625H3.375C3.73008 11.625 4.06406 11.4598 4.275 11.175L5.76562 9.18868ZM15.4195 15.7981C15.0961 16.1215 14.6145 16.2164 14.1926 16.0406C13.7707 15.8648 13.4965 15.457 13.4965 15V13.875H12.375C11.3133 13.875 10.3113 13.3758 9.675 12.525L4.275 5.325C4.06406 5.04024 3.73008 4.875 3.375 4.875H1.125C0.502734 4.875 0 4.37227 0 3.75C0 3.12774 0.502734 2.625 1.125 2.625H3.375C4.43672 2.625 5.43867 3.12422 6.075 3.975L11.475 11.175C11.6859 11.4598 12.0199 11.625 12.375 11.625H13.5V10.5C13.5 10.0465 13.7742 9.63516 14.1961 9.45938C14.618 9.2836 15.0996 9.38203 15.423 9.70196L17.673 11.952C17.884 12.1629 18.0035 12.4477 18.0035 12.7465C18.0035 13.0453 17.884 13.3301 17.673 13.541L15.423 15.791L15.4195 15.7981Z" fill="white"/>
</svg>
