<svg width="22" height="17" viewBox="0 0 22 17" fill="none" xmlns="http://www.w3.org/2000/svg">
<path d="M11.1094 0.375C8.26876 0.375 5.99415 1.66875 4.33829 3.20859C2.69297 4.73438 1.59258 6.5625 1.07227 7.81758C0.956256 8.09531 0.956256 8.40469 1.07227 8.68242C1.59258 9.9375 2.69297 11.7656 4.33829 13.2914C5.99415 14.8313 8.26876 16.125 11.1094 16.125C13.95 16.125 16.2246 14.8313 17.8805 13.2914C19.5258 11.7621 20.6262 9.9375 21.15 8.68242C21.266 8.40469 21.266 8.09531 21.15 7.81758C20.6262 6.5625 19.5258 4.73438 17.8805 3.20859C16.2246 1.66875 13.95 0.375 11.1094 0.375ZM6.04688 8.25C6.04688 6.90734 6.58025 5.61967 7.52965 4.67027C8.47906 3.72087 9.76672 3.1875 11.1094 3.1875C12.452 3.1875 13.7397 3.72087 14.6891 4.67027C15.6385 5.61967 16.1719 6.90734 16.1719 8.25C16.1719 9.59266 15.6385 10.8803 14.6891 11.8297C13.7397 12.7791 12.452 13.3125 11.1094 13.3125C9.76672 13.3125 8.47906 12.7791 7.52965 11.8297C6.58025 10.8803 6.04688 9.59266 6.04688 8.25ZM11.1094 6C11.1094 7.24102 10.1004 8.25 8.85938 8.25C8.60977 8.25 8.37071 8.20781 8.14571 8.13398C7.95235 8.0707 7.72735 8.19023 7.73438 8.39414C7.74493 8.63672 7.78008 8.8793 7.84688 9.12187C8.32852 10.9219 10.1813 11.9906 11.9813 11.509C13.7813 11.0273 14.85 9.17461 14.3684 7.37461C13.9781 5.91563 12.6879 4.93477 11.2535 4.875C11.0496 4.86797 10.9301 5.08945 10.9934 5.28633C11.0672 5.51133 11.1094 5.75039 11.1094 6Z" fill="white"/>
</svg>
